<?xml version="1.0" encoding="utf-8"?>
<!-- Generator: Adobe Illustrator 25.1.0, SVG Export Plug-In . SVG Version: 6.00 Build 0)  -->
<!DOCTYPE svg PUBLIC "-//W3C//DTD SVG 1.1//EN" "http://www.w3.org/Graphics/SVG/1.1/DTD/svg11.dtd">
<svg version="1.1" id="Capa_1" xmlns="http://www.w3.org/2000/svg" xmlns:xlink="http://www.w3.org/1999/xlink" x="0px" y="0px"
	 width="134.8px" height="146px" viewBox="0 0 134.8 146" style="enable-background:new 0 0 134.8 146;" xml:space="preserve">
<g>
	<g>
		<path d="M67.4,78.6c3,0,5.7-1.1,7.9-3.3c2.2-2.2,3.3-4.9,3.3-7.9V11.2c0-3-1.1-5.7-3.3-7.9C73.1,1.1,70.4,0,67.4,0
			c-3,0-5.7,1.1-7.9,3.3c-2.2,2.2-3.3,4.9-3.3,7.9v56.2c0,3,1.1,5.7,3.3,7.9C61.7,77.5,64.3,78.6,67.4,78.6z"/>
		<path d="M127.7,48.5c-4.7-9.4-11.3-17.3-19.9-23.7c-2.5-1.9-5.2-2.6-8.3-2.2c-3.1,0.4-5.6,1.9-7.4,4.4c-1.9,2.5-2.6,5.2-2.1,8.3
			c0.4,3.1,1.9,5.5,4.3,7.4c5.7,4.3,10.2,9.6,13.3,15.9c3.1,6.3,4.7,12.9,4.7,20c0,6.1-1.2,11.9-3.6,17.4
			c-2.4,5.5-5.6,10.3-9.6,14.3c-4,4-8.8,7.2-14.3,9.6c-5.5,2.4-11.3,3.6-17.4,3.6c-6.1,0-11.9-1.2-17.4-3.6
			c-5.5-2.4-10.3-5.6-14.3-9.6c-4-4-7.2-8.8-9.6-14.3c-2.4-5.5-3.6-11.3-3.6-17.4c0-7.1,1.6-13.7,4.7-20c3.1-6.3,7.6-11.6,13.3-15.9
			c2.5-1.9,3.9-4.3,4.3-7.4c0.4-3.1-0.3-5.8-2.1-8.3c-1.8-2.5-4.3-4-7.3-4.4c-3.1-0.4-5.9,0.3-8.4,2.2c-8.5,6.4-15.2,14.3-19.9,23.7
			C2.4,57.9,0,68,0,78.6c0,9.1,1.8,17.8,5.4,26.1c3.6,8.3,8.4,15.5,14.4,21.5c6,6,13.2,10.8,21.5,14.4c8.3,3.6,17,5.4,26.1,5.4
			c9.1,0,17.8-1.8,26.1-5.4c8.3-3.6,15.5-8.4,21.5-14.4c6-6,10.8-13.2,14.4-21.5c3.6-8.3,5.4-17,5.4-26.1
			C134.8,68,132.4,57.9,127.7,48.5z"/>
	</g>
</g>
</svg>
